<svg xmlns="http://www.w3.org/2000/svg" xmlns:xlink="http://www.w3.org/1999/xlink" width="1000" zoomAndPan="magnify" viewBox="0 0 750 749.999995" height="1000" preserveAspectRatio="xMidYMid meet" version="1.0"><defs><clipPath id="db31b2a66d"><path d="M 47 2 L 703.125 2 L 703.125 748 L 47 748 Z M 47 2 " clip-rule="nonzero"/></clipPath></defs><path fill="#000000" d="M 600.433594 695.410156 L 153.625 695.410156 C 147.175781 695.410156 141.96875 690.199219 141.96875 683.753906 C 141.96875 677.304688 147.175781 672.097656 153.625 672.097656 L 600.433594 672.097656 C 606.878906 672.097656 612.089844 677.304688 612.089844 683.753906 C 612.089844 690.199219 606.878906 695.410156 600.433594 695.410156 Z M 600.433594 695.410156 " fill-opacity="1" fill-rule="nonzero"/><path fill="#000000" d="M 529.539062 279.136719 C 523.839844 279.136719 518.152344 277.519531 513.175781 274.347656 C 504.363281 268.730469 499.105469 259.148438 499.105469 248.726562 L 499.105469 200.296875 C 499.105469 189.851562 504.363281 180.28125 513.164062 174.675781 C 521.972656 169.03125 532.90625 168.308594 542.417969 172.75 L 594.488281 196.9375 C 605.339844 201.984375 612.078125 212.546875 612.078125 224.503906 C 612.078125 236.476562 605.339844 247.046875 594.476562 252.085938 L 542.417969 276.28125 C 538.292969 278.195312 533.898438 279.136719 529.539062 279.136719 Z M 529.539062 193.171875 C 527.746094 193.171875 526.34375 193.90625 525.691406 194.316406 C 524.703125 194.957031 522.417969 196.785156 522.417969 200.296875 L 522.417969 248.726562 C 522.417969 252.222656 524.714844 254.054688 525.703125 254.695312 C 526.695312 255.335938 529.351562 256.652344 532.582031 255.148438 L 584.648438 230.941406 C 588.355469 229.226562 588.765625 225.871094 588.765625 224.503906 C 588.765625 223.152344 588.367188 219.808594 584.660156 218.082031 L 532.582031 193.882812 C 531.484375 193.371094 530.460938 193.171875 529.539062 193.171875 Z M 529.539062 193.171875 " fill-opacity="1" fill-rule="nonzero"/><g clip-path="url(#db31b2a66d)"><path fill="#000000" d="M 661.277344 343.644531 C 684.707031 343.644531 703.707031 322.429688 703.707031 296.320312 L 703.707031 152.714844 C 703.707031 126.605469 684.707031 105.390625 661.277344 105.390625 L 612.089844 105.390625 L 612.089844 49.789062 C 612.089844 23.445312 590.640625 2 564.183594 2 L 189.78125 2 C 163.4375 2 141.992188 23.445312 141.992188 49.789062 L 141.992188 236.523438 L 88.488281 236.523438 C 65.875 236.523438 47.457031 254.824219 47.457031 277.4375 L 47.457031 443.890625 C 47.457031 466.503906 65.875 484.800781 88.488281 484.800781 L 141.992188 484.800781 L 141.992188 700.210938 C 141.992188 726.554688 163.4375 748 189.78125 748 L 564.183594 748 C 590.640625 748 612.089844 726.554688 612.089844 700.210938 L 612.089844 615.9375 L 661.277344 615.9375 C 684.707031 615.9375 703.707031 594.722656 703.707031 568.726562 L 703.707031 425.121094 C 703.707031 399.011719 684.707031 377.796875 661.277344 377.796875 L 612.089844 377.796875 L 612.089844 343.644531 Z M 321.988281 25.3125 L 432.023438 25.3125 L 432.023438 39.589844 C 432.023438 47.457031 425.589844 53.855469 417.683594 53.855469 L 336.359375 53.855469 C 328.433594 53.855469 321.988281 47.457031 321.988281 39.589844 Z M 70.769531 277.4375 C 70.769531 267.761719 78.695312 259.835938 88.488281 259.835938 L 107.183594 259.835938 C 108.640625 263.578125 109.65625 267.480469 109.65625 271.5625 C 109.65625 289.617188 94.910156 304.304688 76.808594 304.304688 C 74.746094 304.304688 72.753906 304.058594 70.78125 303.699219 L 70.78125 277.4375 Z M 70.769531 327 C 72.773438 327.210938 74.746094 327.605469 76.796875 327.605469 C 107.765625 327.605469 132.957031 302.460938 132.957031 271.550781 C 132.957031 267.574219 132.410156 263.660156 131.582031 259.824219 L 299 259.824219 C 308.792969 259.824219 316.835938 267.75 316.835938 277.425781 L 316.835938 389.78125 L 287.125 363.109375 C 282.683594 359.125 275.992188 359.125 271.550781 363.109375 L 223.363281 406.355469 L 147.234375 338.0625 C 142.792969 334.074219 136.105469 334.074219 131.664062 338.0625 L 70.769531 392.71875 Z M 316.835938 421.113281 L 316.835938 443.890625 C 316.835938 453.679688 308.792969 461.488281 299 461.488281 L 196.855469 461.488281 L 279.347656 387.460938 Z M 88.488281 461.488281 C 78.695312 461.488281 70.769531 453.679688 70.769531 443.890625 L 70.769531 424.039062 L 139.449219 362.410156 L 205.914062 422.03125 L 161.945312 461.488281 Z M 588.777344 700.210938 C 588.777344 713.730469 577.703125 724.6875 564.183594 724.6875 L 189.78125 724.6875 C 176.261719 724.6875 165.304688 713.730469 165.304688 700.210938 L 165.304688 484.800781 L 299 484.800781 C 321.730469 484.800781 340.148438 466.503906 340.148438 443.890625 L 340.148438 277.4375 C 340.148438 254.824219 321.730469 236.523438 299 236.523438 L 165.304688 236.523438 L 165.304688 49.789062 C 165.304688 36.269531 176.261719 25.3125 189.78125 25.3125 L 298.675781 25.3125 L 298.675781 39.589844 C 298.675781 60.304688 315.574219 77.167969 336.359375 77.167969 L 417.683594 77.167969 C 438.445312 77.167969 455.335938 60.316406 455.335938 39.589844 L 455.335938 25.3125 L 564.171875 25.3125 C 577.691406 25.3125 588.765625 36.269531 588.765625 49.789062 L 588.765625 105.390625 L 449.949219 105.390625 C 426.519531 105.390625 407.40625 126.605469 407.40625 152.714844 L 407.40625 296.320312 C 407.40625 322.429688 426.519531 343.644531 449.949219 343.644531 L 588.777344 343.644531 L 588.777344 377.796875 L 449.949219 377.796875 C 426.519531 377.796875 407.40625 399.011719 407.40625 425.121094 L 407.40625 568.726562 C 407.40625 594.722656 426.519531 615.9375 449.949219 615.9375 L 588.777344 615.9375 Z M 661.277344 401.109375 C 671.769531 401.109375 680.394531 411.832031 680.394531 425.121094 L 680.394531 568.726562 C 680.394531 581.898438 671.769531 592.625 661.277344 592.625 L 449.949219 592.625 C 439.34375 592.625 430.71875 581.898438 430.71875 568.726562 L 430.71875 425.121094 C 430.71875 411.832031 439.34375 401.109375 449.949219 401.109375 Z M 449.949219 320.332031 C 439.34375 320.332031 430.71875 309.492188 430.71875 296.320312 L 430.71875 152.714844 C 430.71875 139.542969 439.34375 128.703125 449.949219 128.703125 L 661.277344 128.703125 C 671.769531 128.703125 680.394531 139.542969 680.394531 152.714844 L 680.394531 296.320312 C 680.394531 309.492188 671.769531 320.332031 661.277344 320.332031 Z M 449.949219 320.332031 " fill-opacity="1" fill-rule="nonzero"/></g><path fill="#000000" d="M 499.675781 565.765625 C 500.65625 565.765625 501.644531 565.730469 502.636719 565.652344 C 524.234375 564.148438 541.136719 547.410156 541.136719 527.523438 C 541.136719 519.164062 537.933594 511.425781 532.324219 505.269531 L 532.324219 452.539062 L 604.605469 452.539062 L 604.605469 493.476562 C 601.972656 493.160156 599.289062 493.078125 596.585938 493.277344 C 575.394531 494.757812 558.144531 511.867188 558.144531 531.40625 C 558.144531 540.695312 561.933594 549.332031 568.808594 555.742188 C 575.734375 562.199219 585.234375 565.765625 595.257812 565.765625 C 596.238281 565.765625 597.238281 565.730469 598.230469 565.652344 C 619.78125 564.148438 636.671875 547.398438 636.671875 527.523438 C 636.671875 519.1875 633.492188 511.472656 627.917969 505.316406 L 627.917969 438.644531 C 627.917969 433.433594 622.707031 429.214844 616.261719 429.214844 L 520.667969 429.214844 C 514.222656 429.214844 509.011719 433.292969 509.011719 438.328125 L 509.011719 493.453125 C 506.402344 493.148438 503.730469 493.066406 501.003906 493.265625 C 479.453125 494.769531 462.5625 511.519531 462.5625 531.394531 C 462.5625 540.683594 466.351562 549.320312 473.226562 555.730469 C 480.152344 562.199219 489.652344 565.765625 499.675781 565.765625 Z M 613.359375 527.535156 C 613.359375 534.960938 605.691406 541.777344 596.597656 542.40625 C 591.980469 542.640625 587.609375 541.371094 584.707031 538.691406 C 583.226562 537.3125 581.46875 534.925781 581.46875 531.402344 C 581.46875 523.980469 589.136719 517.171875 598.265625 516.53125 C 598.742188 516.496094 599.210938 516.484375 599.675781 516.484375 C 603.777344 516.484375 607.519531 517.800781 610.097656 520.191406 C 611.589844 521.578125 613.359375 523.96875 613.359375 527.535156 Z M 502.683594 516.53125 C 503.160156 516.496094 503.628906 516.484375 504.105469 516.484375 C 508.230469 516.484375 511.972656 517.800781 514.5625 520.203125 C 516.042969 521.589844 517.8125 523.980469 517.8125 527.535156 C 517.8125 534.960938 510.121094 541.765625 501.003906 542.40625 C 496.390625 542.675781 492.019531 541.382812 489.113281 538.691406 C 487.636719 537.3125 485.875 534.925781 485.875 531.402344 C 485.886719 523.980469 493.554688 517.160156 502.683594 516.53125 Z M 502.683594 516.53125 " fill-opacity="1" fill-rule="nonzero"/></svg>